<svg width="25" height="25" viewBox="0 0 25 25" fill="none" xmlns="http://www.w3.org/2000/svg">
<path d="M14.7354 3.49448L23.2219 11.9799L0.52085 11.9799C0.233203 11.9799 0 12.2131 0 12.5007C0 12.7884 0.233203 13.0216 0.52085 13.0216L23.2219 13.0216L14.7354 21.507C14.5355 21.7139 14.5413 22.0436 14.7482 22.2435C14.95 22.4384 15.27 22.4384 15.4718 22.2435L24.8468 12.8685C25.0505 12.6653 25.0509 12.3355 24.8477 12.1319C24.8475 12.1316 24.8471 12.1312 24.8468 12.131L15.4718 2.75595C15.2649 2.5561 14.9352 2.56186 14.7353 2.76875C14.5404 2.9706 14.5404 3.29057 14.7353 3.49243L14.7354 3.49448Z" fill="#FFC107"/>
<path d="M25.0001 12.5007C25.0004 12.6389 24.9457 12.7716 24.848 12.8694L15.473 22.2444C15.2661 22.4443 14.9364 22.4385 14.7365 22.2316C14.5416 22.0298 14.5416 21.7098 14.7365 21.508L23.7428 12.5007L14.7365 3.49446C14.5367 3.28758 14.5424 2.95784 14.7493 2.75799C14.9512 2.56302 15.2712 2.56302 15.473 2.75799L24.848 12.133C24.9454 12.2305 25.0001 12.3628 25.0001 12.5007Z" fill="#5A5957"/>
<path d="M25 12.5006C25 12.7883 24.7668 13.0215 24.4792 13.0215L0.52085 13.0215C0.233203 13.0214 0 12.7883 0 12.5006C0 12.213 0.233203 11.9798 0.52085 11.9798L24.4792 11.9798C24.7668 11.9798 25 12.213 25 12.5006Z" fill="#5A5957"/>
</svg>
