<svg width="54" height="60" viewBox="0 0 54 60" fill="none" xmlns="http://www.w3.org/2000/svg">
<path d="M43.5372 29.4673H47.3039C48.1555 29.4673 48.8483 28.6975 48.8483 27.7513V23.5661C48.8483 22.6199 48.1555 21.8501 47.3039 21.8501H43.5372C42.6857 21.8501 41.9928 22.6199 41.9928 23.5661V27.7513C41.9928 28.6975 42.6857 29.4673 43.5372 29.4673V29.4673ZM43.5749 23.6079H47.2663V27.7095H43.5749V23.6079ZM43.5372 40.6001H47.3039C48.1555 40.6001 48.8483 39.8303 48.8483 38.8841V34.6989C48.8483 33.7527 48.1555 32.9829 47.3039 32.9829H43.5372C42.6857 32.9829 41.9928 33.7527 41.9928 34.6989V38.8841C41.9928 39.8303 42.6857 40.6001 43.5372 40.6001V40.6001ZM43.5749 34.7407H47.2663V38.8423H43.5749V34.7407ZM32.7883 29.4673H36.555C37.4065 29.4673 38.0994 28.6975 38.0994 27.7513V23.5661C38.0994 22.6199 37.4065 21.8501 36.555 21.8501H32.7883C31.9367 21.8501 31.2439 22.6199 31.2439 23.5661V27.7513C31.2439 28.6975 31.9367 29.4673 32.7883 29.4673ZM32.8259 23.6079H36.5173V27.7095H32.8259V23.6079ZM15.0571 43.5938H11.2904C10.4388 43.5938 9.74599 44.3636 9.74599 45.3097V49.495C9.74599 50.4411 10.4388 51.2109 11.2904 51.2109H15.0571C15.9086 51.2109 16.6015 50.4411 16.6015 49.495V45.3097C16.6015 44.3636 15.9086 43.5938 15.0571 43.5938ZM15.0194 49.4531H11.328V45.3516H15.0194V49.4531ZM15.0571 21.8501H11.2904C10.4388 21.8501 9.74599 22.6199 9.74599 23.5661V27.7513C9.74599 28.6975 10.4388 29.4673 11.2904 29.4673H15.0571C15.9086 29.4673 16.6015 28.6975 16.6015 27.7513V23.5661C16.6015 22.6198 15.9086 21.8501 15.0571 21.8501ZM15.0194 27.7095H11.328V23.6079H15.0194V27.7095ZM32.7883 40.3391H36.555C37.4065 40.3391 38.0994 39.5693 38.0994 38.6231V34.4379C38.0994 33.4917 37.4065 32.7219 36.555 32.7219H32.7883C31.9367 32.7219 31.2439 33.4917 31.2439 34.4379V38.6231C31.2439 39.5693 31.9367 40.3391 32.7883 40.3391ZM32.8259 34.4797H36.5173V38.5813H32.8259V34.4797ZM49.6339 4.01648H46.252V2.6727C46.252 1.19895 45.1729 0 43.8466 0H43.4833C42.1571 0 41.078 1.19895 41.078 2.6727V4.01648H17.5163V2.6727C17.5163 1.19895 16.4372 0 15.1109 0H14.7476C13.4213 0 12.3422 1.19895 12.3422 2.6727V4.01648H8.96035C6.77662 4.01648 5 5.99051 5 8.41687V55.6055C5 58.0287 6.7742 60 8.95508 60H49.6394C51.8203 60 53.5945 58.0287 53.5945 55.6055V8.41687C53.5944 5.99051 51.8178 4.01648 49.6339 4.01648V4.01648ZM42.66 2.6727C42.66 2.1682 43.0294 1.75781 43.4834 1.75781H43.8467C44.3007 1.75781 44.6701 2.1682 44.6701 2.6727V4.01648H42.66V2.6727ZM13.9243 2.6727C13.9243 2.1682 14.2937 1.75781 14.7477 1.75781H15.111C15.565 1.75781 15.9344 2.1682 15.9344 2.6727V4.01648H13.9244V2.6727H13.9243ZM52.0124 55.6055C52.0124 57.0594 50.9479 58.2422 49.6393 58.2422H8.95497C7.64642 58.2422 6.58193 57.0594 6.58193 55.6055V55.6C7.24469 56.1548 8.06851 56.4844 8.96035 56.4844H41.0316C42.0895 56.4844 43.084 56.0266 43.832 55.1954L52.0124 46.1061V55.6055ZM43.0249 53.6064C43.0869 53.322 43.1206 53.0254 43.1206 52.7201V46.8532C43.1206 45.747 43.9307 44.8468 44.9265 44.8468H50.2065C50.4813 44.8468 50.7482 44.8093 51.0042 44.7404L43.0249 53.6064ZM52.0124 16.5766H18.3073C17.8705 16.5766 17.5163 16.9702 17.5163 17.4555C17.5163 17.9409 17.8705 18.3345 18.3073 18.3345H52.0124V41.0827C52.0124 42.189 51.2023 43.0891 50.2065 43.0891H44.9265C43.0584 43.0891 41.5386 44.7778 41.5386 46.8533V52.7202C41.5386 53.8266 40.7285 54.7267 39.7329 54.7267H8.96035C7.64895 54.7267 6.58203 53.5412 6.58203 52.084V18.3345H15.1432C15.5801 18.3345 15.9343 17.9409 15.9343 17.4555C15.9343 16.9702 15.5801 16.5766 15.1432 16.5766H6.58193V8.41687C6.58193 6.95977 7.64885 5.7743 8.96025 5.7743H12.3422V8.35852C12.3422 9.83227 13.4213 11.0312 14.7476 11.0312C15.1845 11.0312 15.5386 10.6377 15.5386 10.1523C15.5386 9.66691 15.1845 9.2734 14.7476 9.2734C14.2936 9.2734 13.9242 8.86301 13.9242 8.35852V5.7743H41.078V8.35852C41.078 9.83227 42.1571 11.0312 43.4834 11.0312C43.9203 11.0312 44.2744 10.6377 44.2744 10.1523C44.2744 9.66691 43.9203 9.2734 43.4834 9.2734C43.0294 9.2734 42.66 8.86301 42.66 8.35852V5.7743H49.6341C50.9455 5.7743 52.0124 6.95977 52.0124 8.41687V16.5766ZM15.0571 32.7219H11.2904C10.4388 32.7219 9.74599 33.4917 9.74599 34.4379V38.6231C9.74599 39.5693 10.4388 40.3391 11.2904 40.3391H15.0571C15.9086 40.3391 16.6015 39.5693 16.6015 38.6231V34.4379C16.6015 33.4916 15.9086 32.7219 15.0571 32.7219ZM15.0194 38.5813H11.328V34.4797H15.0194V38.5813ZM22.0393 29.4673H25.806C26.6576 29.4673 27.3504 28.6975 27.3504 27.7513V23.5661C27.3504 22.6199 26.6576 21.8501 25.806 21.8501H22.0393C21.1878 21.8501 20.4949 22.6199 20.4949 23.5661V27.7513C20.4949 28.6975 21.1878 29.4673 22.0393 29.4673ZM22.077 23.6079H25.7684V27.7095H22.077V23.6079ZM32.825 49.4531C32.8054 48.9871 32.4591 48.6161 32.0348 48.6161C31.5979 48.6161 31.2438 49.0096 31.2438 49.495C31.2438 50.4411 31.9366 51.2109 32.7882 51.2109H36.5549C37.4064 51.2109 38.0993 50.4411 38.0993 49.495V45.3097C38.0993 44.3636 37.4064 43.5938 36.5549 43.5938H32.7882C31.9366 43.5938 31.2438 44.3636 31.2438 45.3097V46.5168C31.2438 47.0021 31.5979 47.3957 32.0348 47.3957C32.4717 47.3957 32.8258 47.0021 32.8258 46.5168V45.3516H36.5172V49.4531H32.825ZM22.0393 40.3391H25.806C26.6576 40.3391 27.3504 39.5693 27.3504 38.6231V34.4379C27.3504 33.4917 26.6576 32.7219 25.806 32.7219H22.0393C21.1878 32.7219 20.4949 33.4917 20.4949 34.4379V38.6231C20.4949 39.5693 21.1878 40.3391 22.0393 40.3391ZM22.077 34.4797H25.7684V38.5813H22.077V34.4797ZM22.0393 51.2109H25.806C26.6576 51.2109 27.3504 50.4411 27.3504 49.495V45.3097C27.3504 44.3636 26.6576 43.5938 25.806 43.5938H22.0393C21.1878 43.5938 20.4949 44.3636 20.4949 45.3097V49.495C20.4949 50.4411 21.1878 51.2109 22.0393 51.2109ZM22.077 45.3516H25.7684V49.4531H22.077V45.3516Z" fill="black"/>
</svg>
