<svg width="64" height="64" viewBox="0 0 64 64" fill="none" xmlns="http://www.w3.org/2000/svg">
<g clip-path="url(#clip0)">
<path d="M64 21.7962C63.9985 20.8246 63.7128 19.8392 63.0809 19.0269L58.0099 12.5384C57.1605 11.4599 55.8681 10.9108 54.5766 10.9087C53.808 10.9087 53.0254 11.1057 52.3339 11.5369L47.3894 14.6132C46.8694 14.9448 45.9779 15.1724 45.1168 15.1666C44.4478 15.1694 43.8013 15.0356 43.3744 14.8247L38.5324 12.4793C37.7514 12.1033 36.8808 11.9492 36.0053 11.9477C34.7479 11.9536 33.4745 12.2626 32.4513 12.9717L31.8863 13.3681C31.4346 13.1427 30.7445 12.7993 29.9628 12.4103C29.0253 11.9507 27.9229 11.7653 26.8094 11.7617C25.8035 11.7646 24.7979 11.9196 23.9149 12.2926L20.6169 13.6998C20.0801 13.9326 19.2264 14.0846 18.3784 14.0808C17.5304 14.0844 16.6781 13.9324 16.1414 13.6998L12.8404 12.2918C12.2383 12.0351 11.5946 11.9253 10.9568 11.9246C10.2223 11.9253 9.49213 12.0701 8.8135 12.3449C8.13575 12.6213 7.50663 13.0293 7.00563 13.5892L0.995629 20.3199C0.329504 21.0638 -0.00137073 22.0006 4.26775e-06 22.9227C-0.00137073 24.0223 0.469129 25.1254 1.37663 25.8986L6.98288 30.6816L4.32338 33.4559C3.59025 34.2211 3.22525 35.2131 3.22525 36.1939C3.22388 37.2376 3.63838 38.2913 4.45938 39.0672L4.99888 39.5798C5.50725 40.0621 6.11813 40.3688 6.75738 40.5324C6.43675 41.1222 6.2615 41.7688 6.26288 42.4167C6.2615 43.4611 6.676 44.5141 7.4955 45.2908L7.49413 45.2901L8.03525 45.8049C8.8055 46.5351 9.804 46.8987 10.7878 46.8981C11.3165 46.8988 11.8459 46.7926 12.3434 46.5846C12.518 47.2929 12.8786 47.9663 13.4459 48.5044L13.987 49.0193C14.7573 49.7494 15.7541 50.1131 16.7395 50.1124C17.5098 50.1132 18.2835 49.8862 18.9496 49.4456C19.1445 50.0724 19.4784 50.6666 19.9866 51.1494L20.5278 51.6643C21.2964 52.3944 22.2949 52.7581 23.2789 52.7574C24.3268 52.7582 25.385 52.3466 26.1666 51.5306L28.5171 49.0761L31.7105 52.0316C32.4749 52.7406 33.456 53.0933 34.4245 53.0912C35.4885 53.0934 36.5619 52.6672 37.3451 51.8287L37.8549 51.2826C38.2949 50.8099 38.5821 50.2506 38.7488 49.6667L39.9858 50.8084C40.7515 51.5146 41.7313 51.8658 42.6984 51.8651C43.7638 51.8658 44.8401 51.4396 45.6241 50.6004L46.131 50.0549C46.7164 49.4296 47.0459 48.6549 47.1476 47.8638C47.4741 47.9474 47.805 48.0042 48.1388 48.0042C49.2041 48.0042 50.2775 47.5787 51.0623 46.7403L51.5706 46.1948C52.2811 45.4333 52.6346 44.4567 52.6331 43.4938C52.6331 43.1949 52.5903 42.8976 52.524 42.6037C53.4076 42.4866 54.2644 42.0924 54.9159 41.3928L55.4256 40.8467C56.1361 40.0852 56.4881 39.1086 56.4881 38.1449C56.4895 37.0847 56.062 36.0148 55.2184 35.2353L54.265 34.3547L62.8698 24.8409C63.6423 23.9844 63.9986 22.8819 64 21.7962ZM7.75175 38.5081C7.29588 38.5067 6.85 38.3437 6.50163 38.0136L5.96125 37.5009C5.58738 37.1474 5.40275 36.6771 5.40125 36.1941C5.40275 35.7411 5.56488 35.2988 5.89875 34.9504L11.3458 29.2663C11.7006 28.8961 12.1741 28.7107 12.6599 28.7101C13.1144 28.7108 13.5588 28.8744 13.91 29.2053L14.4481 29.7187C14.4481 29.7187 15.0053 30.5426 15.0066 31.0262C15.0053 31.3883 14.8961 31.7411 14.6845 32.0466C14.6664 32.0647 8.8055 38.1728 8.8055 38.1728C8.49425 38.3931 8.12625 38.5064 7.75175 38.5081ZM12.102 44.1777C11.7479 44.5464 11.2751 44.7311 10.7894 44.7326C10.3335 44.7318 9.889 44.5682 9.53925 44.2381L8.99813 43.7238L8.99675 43.7231C8.62588 43.3711 8.43963 42.8992 8.43963 42.4162C8.43963 41.9632 8.60325 41.5209 8.9355 41.1726C8.9355 41.1726 16.1963 33.6144 16.2574 33.5416C16.6044 33.2078 17.0515 33.0354 17.5133 33.0347C17.9691 33.0354 18.4136 33.1983 18.7634 33.5292L19.3045 34.0441C19.6768 34.3961 19.8616 34.8673 19.863 35.3509C19.8615 35.8039 19.698 36.2468 19.3655 36.5952L12.102 44.1777ZM18.0529 47.3912C17.6995 47.7608 17.2269 47.9457 16.741 47.9471C16.2851 47.9463 15.8406 47.7827 15.4909 47.4518L14.9483 46.9376C14.576 46.5848 14.3898 46.1137 14.3898 45.6307C14.3898 45.2264 14.5273 44.8343 14.7904 44.5078L19.8469 39.2302C20.188 38.9226 20.6155 38.7604 21.0585 38.7604C21.5144 38.7612 21.9589 38.9241 22.3086 39.2549L22.8513 39.7698C23.2221 40.1218 23.4084 40.5931 23.4098 41.0759C23.4083 41.5298 23.2433 41.9727 22.9123 42.3202L18.0529 47.3912ZM27.6606 46.8342L24.5924 50.0364C24.2389 50.4058 23.7655 50.5907 23.2798 50.5921C22.8239 50.5913 22.3794 50.4277 22.0296 50.0968L21.4885 49.5826C21.1176 49.2306 20.9314 48.7587 20.93 48.2757C20.9314 47.8218 21.095 47.3789 21.4275 47.0321L24.4944 43.8299C24.8493 43.4606 25.3228 43.2751 25.8085 43.2743C26.263 43.2751 26.7089 43.4379 27.0586 43.7696L27.6013 44.2838C27.9721 44.6358 28.1569 45.1071 28.1584 45.5899C28.1566 46.0437 27.993 46.4866 27.6606 46.8342ZM54.3154 38.1478C54.3148 38.5926 54.1554 39.0282 53.8325 39.3743L53.3241 39.9198C52.9693 40.2994 52.4878 40.4914 51.9948 40.4922C51.5475 40.4914 51.1096 40.3343 50.7621 40.0131L42.1953 32.0904L40.7139 33.6766L49.8836 42.1714C50.2655 42.5249 50.4574 43.0049 50.4603 43.4951C50.4574 43.9416 50.2995 44.3764 49.9774 44.7227L49.4705 45.2682C49.1156 45.6478 48.6341 45.8391 48.1411 45.8406C47.6939 45.8392 47.2546 45.6813 46.9099 45.3621L38.3408 37.4396L36.8609 39.0257L44.4656 46.0582C44.8321 46.4094 45.0199 46.8771 45.0199 47.3569C45.0199 47.8021 44.862 48.2376 44.5399 48.5831L44.0315 49.1286C43.678 49.5082 43.1951 49.7002 42.7008 49.7016C42.252 49.7002 41.8143 49.5423 41.4681 49.2231L33.8786 42.2161H33.8773L33.8759 42.2147L32.3989 43.8037L32.4004 43.8051L32.4288 43.8319L36.23 47.3402C36.5668 47.6863 36.7413 48.1299 36.7426 48.5888C36.7413 49.0317 36.5848 49.4651 36.2626 49.8107L35.7543 50.3568C35.3994 50.7364 34.9194 50.9269 34.4278 50.9284C33.9805 50.9271 33.5426 50.7699 33.1965 50.4493L29.8869 47.3847C30.1749 46.8197 30.3356 46.2066 30.3356 45.5913C30.337 44.5477 29.9225 43.4954 29.103 42.7181L28.5604 42.2032C27.7918 41.4737 26.7946 41.1094 25.8108 41.1108C25.7344 41.1108 25.6574 41.1283 25.5825 41.1327C25.5825 41.1146 25.5868 41.0956 25.5868 41.0774C25.5881 40.0338 24.3541 38.2027 24.3541 38.2027L23.813 37.6893C23.2378 37.1438 22.5359 36.8036 21.8059 36.6668C21.9564 36.2407 22.0415 35.7971 22.0415 35.3527C22.0415 34.3091 21.6284 33.2559 20.8089 32.4794L20.2678 31.9646C19.4975 31.2344 18.5006 30.8701 17.5166 30.8708C17.4018 30.8708 17.2884 30.8941 17.1741 30.9043C17.1429 29.9022 16.7393 28.9008 15.9539 28.1547V28.1539L15.4143 27.6413C14.644 26.9104 13.6471 26.5461 12.6631 26.5468C11.6136 26.5461 10.557 26.9577 9.77538 27.7737L8.48963 29.1154L2.79388 24.2574C2.3845 23.9069 2.18013 23.4226 2.17863 22.9252C2.18 22.5084 2.32188 22.1004 2.62438 21.7617L8.63425 15.0311C8.87275 14.7634 9.2255 14.5213 9.63863 14.3532C10.0518 14.1852 10.5208 14.0929 10.9593 14.0936C11.3411 14.0936 11.6995 14.1627 11.9861 14.2863L15.2856 15.6942C16.2158 16.0862 17.2956 16.2469 18.3809 16.2504C19.4674 16.2468 20.5459 16.0861 21.4761 15.6942L24.7741 14.2869C25.2825 14.0652 26.0496 13.9277 26.8125 13.9306C27.6561 13.9254 28.5011 14.1001 28.9913 14.3502C29.3025 14.5051 29.5978 14.6521 29.8719 14.7894L26.5084 17.1538C25.4276 17.9138 24.8451 19.1224 24.8466 20.3421C24.8453 21.1493 25.1011 21.9711 25.6219 22.6684L25.6205 22.6669L26.0648 23.2639C26.9084 24.3854 28.2239 24.9621 29.5388 24.9649C30.2813 24.9649 31.0376 24.7773 31.7118 24.3729L33.7233 23.1649C34.1335 22.9141 34.753 22.7556 35.3936 22.7584C36.1464 22.7541 36.9049 22.9767 37.3609 23.3118L42.9258 27.3014C44.1643 28.1887 46.1815 29.8344 47.2994 30.8701L53.7405 36.8254C54.1219 37.1791 54.3139 37.6569 54.3154 38.1478ZM61.2548 23.3932L52.674 32.8814L48.7781 29.2802C47.5579 28.1537 45.5456 26.5109 44.1959 25.5414L38.6325 21.5518C37.6893 20.8836 36.5344 20.5947 35.3926 20.5904C34.421 20.5933 33.4421 20.8051 32.5971 21.3082L30.5871 22.5162C30.2788 22.7016 29.9153 22.7962 29.5376 22.7969C28.8626 22.7992 28.1871 22.4842 27.8105 21.9714L27.3676 21.3752L27.3661 21.3737C27.1305 21.0559 27.0208 20.6996 27.0191 20.3388C27.022 19.7933 27.2736 19.2639 27.761 18.9199L33.7084 14.7412C34.2226 14.3689 35.1375 14.1078 36.0065 14.1143C36.6101 14.1114 37.1868 14.2328 37.5816 14.4278L42.4235 16.7732C43.249 17.1696 44.1806 17.3317 45.1179 17.3339C46.3221 17.3281 47.5395 17.0663 48.5425 16.4503L53.4885 13.3734C53.8041 13.1764 54.183 13.0746 54.578 13.0746C55.2456 13.0732 55.9146 13.3757 56.2935 13.8694L61.3645 20.3579C61.6569 20.7296 61.8263 21.2538 61.8263 21.7972C61.8271 22.4048 61.6125 23.0027 61.2548 23.3932Z" fill="black"/>
</g>
<defs>
<clipPath id="clip0">
<rect width="64" height="64" fill="white"/>
</clipPath>
</defs>
</svg>
