<svg width="60" height="60" viewBox="0 0 60 60" fill="none" xmlns="http://www.w3.org/2000/svg">
<path d="M52.8046 2.22656H14.2124C13.9949 2.22656 13.7862 2.31299 13.6324 2.46683C13.4785 2.62067 13.3921 2.82931 13.3921 3.04688V10.5197H7.19336C6.97584 10.5198 6.76726 10.6063 6.61345 10.7601C6.45964 10.9139 6.37317 11.1225 6.37305 11.34V56.9531C6.37305 57.1707 6.45947 57.3793 6.61331 57.5332C6.76715 57.687 6.9758 57.7734 7.19336 57.7734H45.7893C46.0069 57.7734 46.2155 57.687 46.3694 57.5332C46.5232 57.3793 46.6096 57.1707 46.6096 56.9531V49.4812H52.8046C53.0222 49.4812 53.2308 49.3948 53.3847 49.241C53.5385 49.0871 53.6249 48.8785 53.6249 48.6609V3.04688C53.625 2.93913 53.6038 2.83244 53.5626 2.73288C53.5214 2.63333 53.461 2.54287 53.3848 2.46669C53.3086 2.3905 53.2182 2.33008 53.1186 2.28888C53.0191 2.24768 52.9124 2.2265 52.8046 2.22656V2.22656ZM8.01555 56.1328V12.1603H44.969V48.6427V48.6609C44.969 48.6609 44.969 48.6727 44.969 48.6787V56.1319L8.01555 56.1328ZM51.9843 47.8406H46.6096V11.34C46.6095 11.1225 46.523 10.9139 46.3692 10.7601C46.2154 10.6063 46.0068 10.5198 45.7893 10.5197H15.0327V3.86719H51.9843V47.8406Z" fill="black"/>
<path d="M39.968 16.4531H30C29.7824 16.4531 29.5738 16.5396 29.42 16.6934C29.2661 16.8472 29.1797 17.0559 29.1797 17.2734C29.1797 17.491 29.2661 17.6996 29.42 17.8535C29.5738 18.0073 29.7824 18.0938 30 18.0938H39.968C40.1855 18.0938 40.3942 18.0073 40.548 17.8535C40.7019 17.6996 40.7883 17.491 40.7883 17.2734C40.7883 17.0559 40.7019 16.8472 40.548 16.6934C40.3942 16.5396 40.1855 16.4531 39.968 16.4531Z" fill="black"/>
<path d="M39.9678 24.8906H13.0146C12.7971 24.8906 12.5884 24.9771 12.4346 25.1309C12.2808 25.2847 12.1943 25.4934 12.1943 25.7109C12.1943 25.9285 12.2808 26.1371 12.4346 26.291C12.5884 26.4448 12.7971 26.5312 13.0146 26.5312H39.9678C40.1853 26.5312 40.394 26.4448 40.5478 26.291C40.7017 26.1371 40.7881 25.9285 40.7881 25.7109C40.7881 25.4934 40.7017 25.2847 40.5478 25.1309C40.394 24.9771 40.1853 24.8906 39.9678 24.8906Z" fill="black"/>
<path d="M39.9678 29.1094H13.0146C12.9069 29.1094 12.8003 29.1306 12.7007 29.1718C12.6012 29.213 12.5108 29.2735 12.4346 29.3496C12.3584 29.4258 12.298 29.5162 12.2568 29.6158C12.2156 29.7153 12.1943 29.822 12.1943 29.9297C12.1943 30.0374 12.2156 30.1441 12.2568 30.2436C12.298 30.3431 12.3584 30.4336 12.4346 30.5097C12.5108 30.5859 12.6012 30.6463 12.7007 30.6876C12.8003 30.7288 12.9069 30.75 13.0146 30.75H39.9678C40.1853 30.75 40.394 30.6636 40.5478 30.5097C40.7017 30.3559 40.7881 30.1472 40.7881 29.9297C40.7881 29.7121 40.7017 29.5035 40.5478 29.3496C40.394 29.1958 40.1853 29.1094 39.9678 29.1094Z" fill="black"/>
<path d="M39.9678 33.3281H13.0146C12.7971 33.3281 12.5884 33.4146 12.4346 33.5684C12.2808 33.7222 12.1943 33.9309 12.1943 34.1484C12.1943 34.366 12.2808 34.5747 12.4346 34.7285C12.5884 34.8823 12.7971 34.9688 13.0146 34.9688H39.9678C40.1853 34.9688 40.394 34.8823 40.5478 34.7285C40.7017 34.5747 40.7881 34.366 40.7881 34.1484C40.7881 33.9309 40.7017 33.7222 40.5478 33.5684C40.394 33.4146 40.1853 33.3281 39.9678 33.3281V33.3281Z" fill="black"/>
<path d="M39.9678 37.5469H13.0146C12.7971 37.5469 12.5884 37.6333 12.4346 37.7871C12.2808 37.941 12.1943 38.1496 12.1943 38.3672C12.1943 38.5847 12.2808 38.7934 12.4346 38.9472C12.5884 39.1011 12.7971 39.1875 13.0146 39.1875H39.9678C40.1853 39.1875 40.394 39.1011 40.5478 38.9472C40.7017 38.7934 40.7881 38.5847 40.7881 38.3672C40.7881 38.1496 40.7017 37.941 40.5478 37.7871C40.394 37.6333 40.1853 37.5469 39.9678 37.5469Z" fill="black"/>
<path d="M39.9678 41.7656H13.0146C12.7971 41.7656 12.5884 41.8521 12.4346 42.0059C12.2808 42.1597 12.1943 42.3684 12.1943 42.5859C12.1943 42.8035 12.2808 43.0122 12.4346 43.166C12.5884 43.3198 12.7971 43.4062 13.0146 43.4062H39.9678C40.1853 43.4063 40.394 43.3198 40.5478 43.166C40.7017 43.0122 40.7881 42.8035 40.7881 42.5859C40.7881 42.3684 40.7017 42.1597 40.5478 42.0059C40.394 41.8521 40.1853 41.7656 39.9678 41.7656V41.7656Z" fill="black"/>
<path d="M39.9678 45.9844H13.0146C12.7971 45.9844 12.5884 46.0708 12.4346 46.2246C12.2808 46.3785 12.1943 46.5871 12.1943 46.8047C12.1943 47.0222 12.2808 47.2309 12.4346 47.3847C12.5884 47.5386 12.7971 47.625 13.0146 47.625H39.9678C40.1853 47.625 40.394 47.5386 40.5478 47.3847C40.7017 47.2309 40.7881 47.0222 40.7881 46.8047C40.7881 46.5871 40.7017 46.3785 40.5478 46.2246C40.394 46.0708 40.1853 45.9844 39.9678 45.9844Z" fill="black"/>
<path d="M34.9215 50.2031H18.0605C17.843 50.2031 17.6343 50.2896 17.4805 50.4434C17.3267 50.5972 17.2402 50.8059 17.2402 51.0234C17.2402 51.241 17.3267 51.4497 17.4805 51.6035C17.6343 51.7573 17.843 51.8438 18.0605 51.8438H34.9215C35.139 51.8438 35.3477 51.7573 35.5015 51.6035C35.6554 51.4497 35.7418 51.241 35.7418 51.0234C35.7418 50.8059 35.6554 50.5972 35.5015 50.4434C35.3477 50.2896 35.139 50.2031 34.9215 50.2031V50.2031Z" fill="black"/>
</svg>
