<svg width="32" height="35" viewBox="0 0 32 35" fill="none" xmlns="http://www.w3.org/2000/svg">
<path d="M25.2902 21.6812C24.6351 20.9351 23.8449 20.5362 23.0075 20.5362C22.1767 20.5362 21.3798 20.9277 20.6977 21.6738L18.5634 24.0007C18.3878 23.8973 18.2122 23.8013 18.0434 23.7053C17.8003 23.5723 17.5706 23.4467 17.3748 23.3137C15.3756 21.925 13.5589 20.1152 11.8164 17.7735C10.9722 16.6064 10.4048 15.6239 9.99285 14.6266C10.5467 14.0726 11.06 13.4964 11.5597 12.9424C11.7488 12.7356 11.9379 12.5214 12.1271 12.3145C13.5454 10.7633 13.5454 8.75399 12.1271 7.20272L10.2833 5.18608C10.0739 4.95708 9.85777 4.7207 9.65516 4.48431C9.24993 4.02632 8.82444 3.55355 8.38544 3.11033C7.73032 2.40118 6.94688 2.02444 6.12291 2.02444C5.29895 2.02444 4.502 2.40118 3.82661 3.11033C3.81986 3.11772 3.81986 3.11772 3.81311 3.12511L1.51681 5.65884C0.652318 6.60438 0.15929 7.75675 0.0512285 9.09379C-0.110863 11.2508 0.469965 13.2601 0.915717 14.5749C2.00984 17.8031 3.64426 20.7948 6.08239 24.0007C9.04056 27.8641 12.5998 30.915 16.6656 33.0646C18.219 33.8698 20.2924 34.8227 22.609 34.9852C22.7508 34.9926 22.8994 35 23.0345 35C24.5946 35 25.9048 34.3868 26.9314 33.168C26.9382 33.1532 26.9517 33.1458 26.9584 33.1311C27.3096 32.6657 27.7149 32.2446 28.1404 31.794C28.4308 31.4911 28.7279 31.1735 29.0184 30.8411C29.687 30.0802 30.0382 29.1938 30.0382 28.2852C30.0382 27.3692 29.6802 26.4901 28.9981 25.7514L25.2902 21.6812ZM27.7081 29.4597C27.7014 29.4597 27.7014 29.4671 27.7081 29.4597C27.4447 29.77 27.1746 30.0507 26.8841 30.3609C26.4452 30.8189 25.9994 31.2991 25.5807 31.8383C24.8985 32.6361 24.0948 33.0129 23.0412 33.0129C22.9399 33.0129 22.8319 33.0129 22.7306 33.0055C20.7247 32.8651 18.8606 32.0082 17.4626 31.2769C13.6399 29.2529 10.2833 26.3793 7.49394 22.7376C5.19088 19.7015 3.65101 16.8945 2.63119 13.8806C2.00308 12.0412 1.77345 10.6081 1.87476 9.25631C1.9423 8.39203 2.24622 7.67549 2.80679 7.06237L5.10984 4.54341C5.44078 4.20361 5.79197 4.01893 6.13642 4.01893C6.56191 4.01893 6.90635 4.29964 7.12248 4.53602C7.12923 4.54341 7.13598 4.55079 7.14274 4.55818C7.55472 4.97924 7.94644 5.41507 8.35843 5.88045C8.56779 6.11684 8.78392 6.35322 9.00004 6.59699L10.8438 8.61364C11.5597 9.39666 11.5597 10.1206 10.8438 10.9036C10.648 11.1178 10.4589 11.332 10.263 11.5389C9.69568 12.1742 9.15538 12.7651 8.56779 13.3413C8.55429 13.3561 8.54078 13.3635 8.53403 13.3782C7.9532 14.0135 8.06126 14.634 8.18283 15.0551C8.18958 15.0773 8.19633 15.0994 8.20309 15.1216C8.68261 16.3921 9.35799 17.5888 10.3846 19.0145L10.3913 19.0219C12.2554 21.5335 14.2207 23.491 16.3887 24.9906C16.6656 25.1827 16.9493 25.3378 17.2194 25.4855C17.4626 25.6185 17.6922 25.7441 17.8881 25.877C17.9151 25.8918 17.9421 25.914 17.9691 25.9287C18.1987 26.0543 18.4149 26.1134 18.6377 26.1134C19.1983 26.1134 19.5495 25.7293 19.6643 25.6037L21.9741 23.0774C22.2038 22.8262 22.5685 22.5233 22.9939 22.5233C23.4127 22.5233 23.7571 22.8114 23.9665 23.0626C23.9733 23.07 23.9733 23.07 23.98 23.0774L27.7014 27.1476C28.397 27.9011 28.397 28.6767 27.7081 29.4597Z" fill="black"/>
<path d="M17.294 8.32555C19.0635 8.65058 20.6709 9.56656 21.9541 10.9701C23.2373 12.3736 24.068 14.1317 24.372 16.0671C24.4463 16.5547 24.8312 16.8945 25.2702 16.8945C25.3243 16.8945 25.3715 16.8871 25.4256 16.8797C25.9253 16.791 26.2563 16.2739 26.1752 15.7273C25.8105 13.3856 24.7975 11.2508 23.2508 9.55918C21.7042 7.86756 19.7523 6.75951 17.6114 6.36061C17.1116 6.27197 16.6456 6.63393 16.5578 7.17318C16.47 7.71243 16.7942 8.23691 17.294 8.32555Z" fill="black"/>
<path d="M31.9628 15.4392C31.3617 11.5832 29.7002 8.07441 27.1473 5.28213C24.5944 2.48984 21.3863 0.672645 17.8608 0.0152035C17.3678 -0.0808273 16.9018 0.288522 16.814 0.827772C16.7329 1.37441 17.0638 1.88411 17.5636 1.98014C20.7109 2.56371 23.5813 4.19624 25.8641 6.68565C28.1469 9.18246 29.6327 12.3219 30.1663 15.7643C30.2405 16.2518 30.6255 16.5916 31.0645 16.5916C31.1185 16.5916 31.1658 16.5842 31.2199 16.5768C31.7129 16.4956 32.0506 15.9785 31.9628 15.4392Z" fill="black"/>
</svg>
