<svg width="28" height="28" viewBox="0 0 28 28" fill="none" xmlns="http://www.w3.org/2000/svg">
<path d="M14 0C6.2681 0 0 6.2681 0 14C0 21.7319 6.2681 28 14 28C21.7319 28 28 21.7319 28 14C27.9913 6.27174 21.7283 0.00865888 14 0ZM14 27.0667C6.78353 27.0667 0.933333 21.2165 0.933333 14C0.933333 6.78353 6.78353 0.933333 14 0.933333C21.2165 0.933333 27.0667 6.78353 27.0667 14C27.0585 21.2131 21.2131 27.0585 14 27.0667Z" fill="white"/>
<path d="M20.5333 8.3999H7.46667C7.20895 8.3999 7 8.60885 7 8.86657V19.1332C7 19.391 7.20895 19.5999 7.46667 19.5999H20.5333C20.791 19.5999 21 19.391 21 19.1332V8.86657C21 8.60885 20.791 8.3999 20.5333 8.3999ZM19.2732 9.33324L14 13.852L8.72676 9.33324H19.2732ZM7.93333 18.6666V9.88102L13.6963 14.8207C13.8708 14.9702 14.1283 14.9702 14.3028 14.8207L20.0667 9.88102V18.6666H7.93333Z" fill="white"/>
</svg>
