<svg width="54" height="60" viewBox="0 0 54 60" fill="none" xmlns="http://www.w3.org/2000/svg">
<g clip-path="url(#clip0)">
<path d="M53.1055 6.22072V2.92623C53.1055 1.63014 52.1565 0.575684 50.9899 0.575684C49.8234 0.575684 48.8744 1.63014 48.8744 2.92623V6.26537C48.2465 6.58682 47.8096 7.29264 47.8096 8.10978V42.3499C47.8096 42.8353 48.1636 43.2288 48.6006 43.2288C49.0375 43.2288 49.3916 42.8353 49.3916 42.3499V15.5929H52.6822V50.8142H49.3916V46.4392C49.3916 45.9538 49.0375 45.5603 48.6006 45.5603C48.1636 45.5603 47.8096 45.9538 47.8096 46.4392V51.6931C47.8096 51.7678 47.8181 51.842 47.835 51.9144L49.3987 58.593C49.5958 59.4347 50.2541 60.0002 51.0369 60.0002C51.8197 60.0002 52.4779 59.4346 52.6751 58.5929L54.2387 51.9144C54.2556 51.842 54.2642 51.7678 54.2642 51.6931V8.10978C54.2645 7.25232 53.7834 6.51744 53.1055 6.22072V6.22072ZM49.3918 8.10978C49.3918 7.96002 49.5015 7.83814 49.6362 7.83814H52.438C52.5726 7.83814 52.6823 7.96002 52.6823 8.10978V10.2038H49.3917V8.10978H49.3918ZM50.99 2.3335C51.2841 2.3335 51.5235 2.59939 51.5235 2.92623V6.08033H50.4566V2.92623C50.4565 2.59939 50.6958 2.3335 50.99 2.3335V2.3335ZM49.3918 13.8351V11.9617H52.6824V13.8351H49.3918ZM51.1442 58.1504C51.1356 58.1869 51.1227 58.2424 51.037 58.2424C50.9514 58.2424 50.9384 58.1869 50.9299 58.1504L49.6238 52.572H52.4503L51.1442 58.1504Z" fill="black"/>
<path d="M15.3663 8.46875H27.8727C28.3095 8.46875 28.6637 8.07523 28.6637 7.58984C28.6637 7.10445 28.3095 6.71094 27.8727 6.71094H15.3662C14.9294 6.71094 14.5752 7.10445 14.5752 7.58984C14.5752 8.07523 14.9295 8.46875 15.3663 8.46875V8.46875Z" fill="black"/>
<path d="M15.3667 17.8699H38.9021C39.339 17.8699 39.6931 17.4764 39.6931 16.991C39.6931 16.5056 39.339 16.1121 38.9021 16.1121H15.3667C14.9298 16.1121 14.5757 16.5056 14.5757 16.991C14.5757 17.4764 14.9298 17.8699 15.3667 17.8699V17.8699Z" fill="black"/>
<path d="M15.3667 26.4619H38.9021C39.339 26.4619 39.6931 26.0684 39.6931 25.583C39.6931 25.0976 39.339 24.7041 38.9021 24.7041H15.3667C14.9298 24.7041 14.5757 25.0976 14.5757 25.583C14.5757 26.0684 14.9298 26.4619 15.3667 26.4619V26.4619Z" fill="black"/>
<path d="M15.3667 35.054H38.9021C39.339 35.054 39.6931 34.6604 39.6931 34.175C39.6931 33.6897 39.339 33.2961 38.9021 33.2961H15.3667C14.9298 33.2961 14.5757 33.6897 14.5757 34.175C14.5757 34.6604 14.9298 35.054 15.3667 35.054V35.054Z" fill="black"/>
<path d="M15.3667 43.6462H38.9021C39.339 43.6462 39.6931 43.2527 39.6931 42.7673C39.6931 42.2819 39.339 41.8884 38.9021 41.8884H15.3667C14.9298 41.8884 14.5757 42.2819 14.5757 42.7673C14.5757 43.2527 14.9298 43.6462 15.3667 43.6462V43.6462Z" fill="black"/>
<path d="M15.3667 52.2383H38.9021C39.339 52.2383 39.6931 51.8448 39.6931 51.3594C39.6931 50.874 39.339 50.4805 38.9021 50.4805H15.3667C14.9298 50.4805 14.5757 50.874 14.5757 51.3594C14.5757 51.8448 14.9298 52.2383 15.3667 52.2383V52.2383Z" fill="black"/>
<path d="M11.3 50.539C11.3 48.9821 10.16 47.7155 8.75881 47.7155H7.94111V43.0931H8.75881C10.1601 43.0931 11.3 41.8264 11.3 40.2694C11.3 38.7125 10.16 37.4459 8.75881 37.4459H7.94111V32.8235H8.75881C10.1601 32.8235 11.3 31.5568 11.3 29.9999C11.3 28.4431 10.16 27.1764 8.75881 27.1764H7.94111V22.554H8.75881C10.1601 22.554 11.3 21.2873 11.3 19.7303C11.3 18.1734 10.16 16.9068 8.75881 16.9068H7.94111V12.2844H8.75881C10.1601 12.2844 11.3 11.0177 11.3 9.46084C11.3 7.904 10.16 6.63721 8.7587 6.63721H5.54116C4.13991 6.63721 3 7.90389 3 9.46084C3 11.0178 4.14001 12.2844 5.54116 12.2844H6.35886V16.9068H5.54116C4.13991 16.9068 3 18.1735 3 19.7303C3 21.2872 4.14001 22.554 5.54116 22.554H6.35886V27.1764H5.54116C4.13991 27.1764 3 28.4431 3 29.9999C3 31.5568 4.14001 32.8235 5.54116 32.8235H6.35886V37.4459H5.54116C4.13991 37.4459 3 38.7126 3 40.2696C3 41.8265 4.14001 43.0931 5.54116 43.0931H6.35886V47.7155H5.54116C4.13991 47.7155 3 48.9822 3 50.539C3 52.0959 4.14001 53.3626 5.54116 53.3626H8.7587C10.16 53.3626 11.3 52.096 11.3 50.539V50.539ZM4.58203 9.46084C4.58203 8.87314 5.01234 8.39502 5.54116 8.39502H8.7587C9.28763 8.39502 9.71783 8.87314 9.71783 9.46084C9.71783 10.0485 9.28752 10.5265 8.7587 10.5265H5.54116C5.01234 10.5265 4.58203 10.0485 4.58203 9.46084V9.46084ZM4.58203 19.7303C4.58203 19.1426 5.01234 18.6646 5.54116 18.6646H8.7587C9.28763 18.6646 9.71783 19.1428 9.71783 19.7303C9.71783 20.3179 9.28752 20.7962 8.7587 20.7962H5.54116C5.01234 20.7962 4.58203 20.318 4.58203 19.7303V19.7303ZM4.58203 29.9999C4.58203 29.4122 5.01234 28.9342 5.54116 28.9342H8.7587C9.28763 28.9342 9.71783 29.4124 9.71783 29.9999C9.71783 30.5875 9.28752 31.0656 8.7587 31.0656H5.54116C5.01234 31.0656 4.58203 30.5876 4.58203 29.9999V29.9999ZM4.58203 40.2694C4.58203 39.6817 5.01234 39.2037 5.54116 39.2037H8.7587C9.28763 39.2037 9.71783 39.6819 9.71783 40.2696C9.71783 40.8573 9.28752 41.3353 8.7587 41.3353H5.54116C5.01234 41.3353 4.58203 40.8571 4.58203 40.2694V40.2694ZM4.58203 50.539C4.58203 49.9514 5.01234 49.4733 5.54116 49.4733H8.7587C9.28763 49.4733 9.71783 49.9515 9.71783 50.539C9.71783 51.1266 9.28752 51.6048 8.7587 51.6048H5.54116C5.01234 51.6048 4.58203 51.1267 4.58203 50.539V50.539Z" fill="black"/>
<path d="M42.3938 0H9.65851C7.95889 0 6.51481 1.47258 6.37105 3.35238C6.33403 3.83602 6.65698 4.26141 7.09225 4.30254C7.52836 4.34309 7.91048 3.98496 7.94739 3.50121C8.02217 2.52363 8.77384 1.75781 9.65851 1.75781H42.3938C43.3408 1.75781 44.1111 2.61387 44.1111 3.66598V56.3339C44.1111 57.3861 43.3407 58.2422 42.3938 58.2422H9.65851C8.77384 58.2422 8.02217 57.4764 7.94739 56.4988C7.91037 56.0152 7.52836 55.6564 7.09225 55.6975C6.65698 55.7386 6.33414 56.164 6.37105 56.6476C6.51481 58.5274 7.95889 60 9.65851 60H42.3938C44.2131 60 45.6932 58.3554 45.6932 56.3339V3.66598C45.6932 1.64461 44.2131 0 42.3938 0V0Z" fill="black"/>
</g>
<defs>
<clipPath id="clip0">
<rect width="54" height="60" fill="white"/>
</clipPath>
</defs>
</svg>
