<svg width="54" height="54" viewBox="0 0 54 54" fill="none" xmlns="http://www.w3.org/2000/svg">
<g clip-path="url(#clip0)">
<path d="M27.0002 0C23.5208 0 20.7002 2.8206 20.7002 6.3C20.7041 9.77771 23.5225 12.5961 27.0002 12.6C30.4796 12.6 33.3002 9.7794 33.3002 6.3C33.3002 2.8206 30.4796 0 27.0002 0ZM27.0002 10.8C24.515 10.8 22.5002 8.78524 22.5002 6.3C22.5031 3.816 24.5162 1.80293 27.0002 1.8C29.4854 1.8 31.5002 3.81476 31.5002 6.3C31.5002 8.78524 29.4854 10.8 27.0002 10.8Z" fill="black"/>
<path d="M29.7002 13.5H24.3002C19.8288 13.5049 16.2051 17.1286 16.2002 21.6V36.9H19.8002V54H21.6002V33.3H19.8002V35.1H18.0002V21.6C18.0041 18.1223 20.8225 15.3039 24.3002 15.3H29.7002C33.1779 15.3039 35.9963 18.1223 36.0002 21.6V35.1H34.2002V33.3H32.4002V54H34.2002V36.9H37.8002V21.6C37.7952 17.1286 34.1716 13.5049 29.7002 13.5Z" fill="black"/>
<path d="M27.8996 36.9001H26.0996V54.0001H27.8996V36.9001Z" fill="black"/>
<path d="M44.9996 9C42.0172 9 39.5996 11.4176 39.5996 14.4C39.6025 17.3811 42.0185 19.7971 44.9996 19.8C47.982 19.8 50.3996 17.3824 50.3996 14.4C50.3996 11.4176 47.982 9 44.9996 9ZM44.9996 18C43.0114 18 41.3996 16.3882 41.3996 14.4C41.3996 12.4118 43.0114 10.8 44.9996 10.8C46.9878 10.8 48.5996 12.4118 48.5996 14.4C48.5996 16.3882 46.9878 18 44.9996 18Z" fill="black"/>
<path d="M47.6996 20.7H39.5996V22.5H47.6996C50.1836 22.5029 52.1967 24.516 52.1996 27V38.7H50.3996V36.9H48.5996V54H50.3996V40.5H53.9996V27C53.9957 23.5222 51.1773 20.7039 47.6996 20.7Z" fill="black"/>
<path d="M39.6 36.9001V38.7001H36V40.5001H39.6V54.0001H41.4V36.9001H39.6Z" fill="black"/>
<path d="M45.8996 40.5H44.0996V54H45.8996V40.5Z" fill="black"/>
<path d="M8.99961 9C6.01723 9 3.59961 11.4176 3.59961 14.4C3.60253 17.3811 6.01847 19.7971 8.99961 19.8C11.982 19.8 14.3996 17.3824 14.3996 14.4C14.3996 11.4176 11.982 9 8.99961 9ZM8.99961 18C7.0114 18 5.39961 16.3882 5.39961 14.4C5.39961 12.4118 7.0114 10.8 8.99961 10.8C10.9878 10.8 12.5996 12.4118 12.5996 14.4C12.5996 16.3882 10.9878 18 8.99961 18Z" fill="black"/>
<path d="M6.3 20.7C2.82229 20.7039 0.0039375 23.5222 0 27V40.5H3.6V54H5.4V36.9H3.6V38.7H1.8V27C1.80293 24.516 3.816 22.5029 6.3 22.5H14.4V20.7H6.3Z" fill="black"/>
<path d="M14.3996 38.7001V36.9001H12.5996V54.0001H14.3996V40.5001H17.9996V38.7001H14.3996Z" fill="black"/>
<path d="M9.89961 40.5H8.09961V54H9.89961V40.5Z" fill="black"/>
</g>
<defs>
<clipPath id="clip0">
<rect width="54" height="54" fill="white"/>
</clipPath>
</defs>
</svg>
