<svg width="28" height="28" viewBox="0 0 28 28" fill="none" xmlns="http://www.w3.org/2000/svg">
<g clip-path="url(#clip0)">
<path d="M23.6723 3.97884C18.1794 -1.32628 9.4712 -1.32628 3.97838 3.97884C-1.45995 9.60958 -1.30398 18.5828 4.32676 24.0211C9.81957 29.3262 18.5278 29.3262 24.0206 24.0211C29.459 18.3904 29.303 9.41718 23.6723 3.97884ZM23.3545 23.3549L23.3497 23.3502C18.1811 28.5142 9.80479 28.5104 4.6408 23.3417C-0.523186 18.173 -0.519365 9.79678 4.64933 4.63279C9.81802 -0.531199 18.1943 -0.527378 23.3583 4.64126C25.8387 7.12395 27.231 10.4905 27.2288 14C27.229 17.5087 25.8354 20.8738 23.3545 23.3549Z" fill="white"/>
<path d="M21.9611 18.035L19.3058 15.3891C18.7032 14.7851 17.725 14.7839 17.1209 15.3865C17.12 15.3874 17.1192 15.3882 17.1183 15.3891L15.597 16.9105C15.4818 17.0259 15.3005 17.0418 15.167 16.9483C14.3343 16.3664 13.5549 15.7118 12.8378 14.9923C12.1955 14.3514 11.6047 13.6611 11.0707 12.9275C10.9739 12.7958 10.988 12.613 11.1037 12.4976L12.6629 10.9384C13.2649 10.3353 13.2649 9.35874 12.6629 8.75562L10.0076 6.10034C9.39576 5.51538 8.43197 5.51538 7.8201 6.10034L6.97912 6.94132C5.70904 8.19712 5.25563 10.0618 5.80737 11.7605C6.21909 13.0034 6.80106 14.1832 7.53662 15.2663C8.19882 16.2592 8.95852 17.1835 9.80448 18.0255C10.7242 18.9518 11.743 19.7741 12.8425 20.4777C14.0511 21.2664 15.3783 21.8565 16.7734 22.2258C17.1321 22.3142 17.5002 22.3586 17.8695 22.3581C19.1358 22.3503 20.3473 21.8406 21.2383 20.9406L21.9611 20.2178C22.5631 19.6147 22.5631 18.6381 21.9611 18.035ZM21.292 19.5734C21.2914 19.574 21.2908 19.5747 21.2901 19.5753L21.2949 19.5611L20.572 20.284C19.6432 21.2245 18.2905 21.6115 17.0048 21.3045C15.7095 20.9578 14.4781 20.4059 13.3573 19.6698C12.3161 19.0043 11.3511 18.2264 10.48 17.3499C9.67841 16.5542 8.9583 15.6805 8.3302 14.7419C7.6432 13.7319 7.09943 12.6316 6.71435 11.4724C6.2729 10.1105 6.63872 8.6162 7.65931 7.61227L8.50029 6.77129C8.73411 6.53642 9.11405 6.53559 9.34886 6.76941C9.34947 6.77002 9.35013 6.77062 9.35074 6.77129L12.006 9.42657C12.2409 9.66038 12.2417 10.0403 12.0079 10.2751C12.0073 10.2757 12.0067 10.2764 12.006 10.277L10.4469 11.8362C9.99949 12.2787 9.94323 12.9818 10.3146 13.4898C10.8785 14.2638 11.5026 14.992 12.1809 15.668C12.9371 16.4275 13.7593 17.1184 14.6377 17.7327C15.1453 18.0867 15.8334 18.027 16.2724 17.5909L17.7796 16.0601C18.0134 15.8253 18.3934 15.8244 18.6282 16.0582C18.6288 16.0589 18.6294 16.0595 18.6301 16.0601L21.2901 18.7249C21.525 18.9586 21.5258 19.3385 21.292 19.5734Z" fill="white"/>
</g>
<defs>
<clipPath id="clip0">
<rect width="28" height="28" fill="white"/>
</clipPath>
</defs>
</svg>
