<svg width="28" height="28" viewBox="0 0 28 28" fill="none" xmlns="http://www.w3.org/2000/svg">
<g clip-path="url(#clip0)">
<path d="M23.6723 3.97884C18.1794 -1.32628 9.4712 -1.32628 3.97838 3.97884C-1.45995 9.60958 -1.30398 18.5828 4.32676 24.0211C9.81957 29.3262 18.5278 29.3262 24.0206 24.0211C29.459 18.3904 29.303 9.41718 23.6723 3.97884ZM23.3545 23.3549L23.3497 23.3502C18.1811 28.5142 9.80479 28.5104 4.6408 23.3417C-0.523186 18.173 -0.519365 9.79678 4.64933 4.63279C9.81802 -0.531199 18.1943 -0.527378 23.3583 4.64126C25.8387 7.12395 27.231 10.4905 27.2288 14C27.229 17.5087 25.8354 20.8738 23.3545 23.3549Z" fill="#1D1B1B"/>
<path d="M21.9611 18.0349L19.3058 15.3891C18.7032 14.785 17.725 14.7838 17.1209 15.3864C17.12 15.3873 17.1192 15.3882 17.1183 15.3891L15.597 16.9104C15.4818 17.0258 15.3005 17.0417 15.167 16.9482C14.3343 16.3663 13.5549 15.7117 12.8378 14.9922C12.1955 14.3513 11.6047 13.661 11.0707 12.9275C10.9739 12.7957 10.988 12.613 11.1037 12.4975L12.6629 10.9384C13.2649 10.3352 13.2649 9.35866 12.6629 8.75554L10.0076 6.10027C9.39576 5.5153 8.43197 5.5153 7.8201 6.10027L6.97912 6.94125C5.70904 8.19705 5.25563 10.0617 5.80737 11.7605C6.21909 13.0033 6.80106 14.1831 7.53662 15.2662C8.19882 16.2592 8.95852 17.1835 9.80448 18.0254C10.7242 18.9518 11.743 19.774 12.8425 20.4776C14.0511 21.2663 15.3783 21.8565 16.7734 22.2257C17.1321 22.3141 17.5002 22.3585 17.8695 22.358C19.1358 22.3502 20.3473 21.8405 21.2383 20.9406L21.9611 20.2177C22.5631 19.6146 22.5631 18.638 21.9611 18.0349ZM21.292 19.5733C21.2914 19.5739 21.2908 19.5746 21.2901 19.5752L21.2949 19.561L20.572 20.2839C19.6432 21.2244 18.2905 21.6114 17.0048 21.3044C15.7095 20.9577 14.4781 20.4058 13.3573 19.6697C12.3161 19.0042 11.3511 18.2263 10.48 17.3498C9.67841 16.5542 8.9583 15.6805 8.3302 14.7418C7.6432 13.7318 7.09943 12.6315 6.71435 11.4723C6.2729 10.1104 6.63872 8.61612 7.65931 7.61219L8.50029 6.77121C8.73411 6.53634 9.11405 6.53551 9.34886 6.76933C9.34947 6.76994 9.35013 6.77055 9.35074 6.77121L12.006 9.42649C12.2409 9.66031 12.2417 10.0402 12.0079 10.2751C12.0073 10.2757 12.0067 10.2763 12.006 10.2769L10.4469 11.8361C9.99949 12.2786 9.94323 12.9818 10.3146 13.4898C10.8785 14.2637 11.5026 14.992 12.1809 15.6679C12.9371 16.4274 13.7593 17.1184 14.6377 17.7326C15.1453 18.0866 15.8334 18.0269 16.2724 17.5909L17.7796 16.0601C18.0134 15.8252 18.3934 15.8244 18.6282 16.0582C18.6288 16.0588 18.6294 16.0594 18.6301 16.0601L21.2901 18.7248C21.525 18.9586 21.5258 19.3384 21.292 19.5733Z" fill="#1D1B1B"/>
</g>
<defs>
<clipPath id="clip0">
<rect width="28" height="28" fill="white"/>
</clipPath>
</defs>
</svg>
