<svg width="75" height="75" viewBox="0 0 75 75" fill="none" xmlns="http://www.w3.org/2000/svg">
<path d="M47.2902 41.6812C46.6351 40.9351 45.8449 40.5362 45.0075 40.5362C44.1767 40.5362 43.3798 40.9277 42.6977 41.6738L40.5634 44.0007C40.3878 43.8973 40.2122 43.8013 40.0434 43.7053C39.8003 43.5723 39.5706 43.4467 39.3748 43.3137C37.3756 41.925 35.5589 40.1152 33.8164 37.7735C32.9722 36.6064 32.4048 35.6239 31.9928 34.6266C32.5467 34.0726 33.06 33.4964 33.5597 32.9424C33.7488 32.7356 33.9379 32.5214 34.1271 32.3145C35.5454 30.7633 35.5454 28.754 34.1271 27.2027L32.2833 25.1861C32.0739 24.9571 31.8578 24.7207 31.6552 24.4843C31.2499 24.0263 30.8244 23.5536 30.3854 23.1103C29.7303 22.4012 28.9469 22.0244 28.1229 22.0244C27.2989 22.0244 26.502 22.4012 25.8266 23.1103C25.8199 23.1177 25.8199 23.1177 25.8131 23.1251L23.5168 25.6588C22.6523 26.6044 22.1593 27.7567 22.0512 29.0938C21.8891 31.2508 22.47 33.2601 22.9157 34.5749C24.0098 37.8031 25.6443 40.7948 28.0824 44.0007C31.0406 47.8641 34.5998 50.915 38.6656 53.0646C40.219 53.8698 42.2924 54.8227 44.609 54.9852C44.7508 54.9926 44.8994 55 45.0345 55C46.5946 55 47.9048 54.3868 48.9314 53.168C48.9382 53.1532 48.9517 53.1458 48.9584 53.1311C49.3096 52.6657 49.7149 52.2446 50.1404 51.794C50.4308 51.4911 50.7279 51.1735 51.0184 50.8411C51.687 50.0802 52.0382 49.1938 52.0382 48.2852C52.0382 47.3692 51.6802 46.4901 50.9981 45.7514L47.2902 41.6812ZM49.7081 49.4597C49.7014 49.4597 49.7014 49.4671 49.7081 49.4597C49.4447 49.77 49.1746 50.0507 48.8842 50.3609C48.4452 50.8189 47.9994 51.2991 47.5807 51.8383C46.8985 52.6361 46.0948 53.0129 45.0412 53.0129C44.9399 53.0129 44.8319 53.0129 44.7306 53.0055C42.7247 52.8651 40.8606 52.0082 39.4626 51.2769C35.6399 49.2529 32.2833 46.3793 29.4939 42.7376C27.1909 39.7015 25.651 36.8945 24.6312 33.8806C24.0031 32.0412 23.7735 30.6081 23.8748 29.2563C23.9423 28.392 24.2462 27.6755 24.8068 27.0624L27.1098 24.5434C27.4408 24.2036 27.792 24.0189 28.1364 24.0189C28.5619 24.0189 28.9064 24.2996 29.1225 24.536C29.1292 24.5434 29.136 24.5508 29.1427 24.5582C29.5547 24.9792 29.9464 25.4151 30.3584 25.8805C30.5678 26.1168 30.7839 26.3532 31 26.597L32.8438 28.6136C33.5597 29.3967 33.5597 30.1206 32.8438 30.9036C32.648 31.1178 32.4589 31.332 32.263 31.5389C31.6957 32.1742 31.1554 32.7651 30.5678 33.3413C30.5543 33.3561 30.5408 33.3635 30.534 33.3782C29.9532 34.0135 30.0613 34.634 30.1828 35.0551C30.1896 35.0773 30.1963 35.0994 30.2031 35.1216C30.6826 36.3921 31.358 37.5888 32.3846 39.0145L32.3913 39.0219C34.2554 41.5335 36.2207 43.491 38.3887 44.9906C38.6656 45.1827 38.9493 45.3378 39.2194 45.4855C39.4626 45.6185 39.6922 45.7441 39.8881 45.877C39.9151 45.8918 39.9421 45.914 39.9691 45.9287C40.1987 46.0543 40.4149 46.1134 40.6377 46.1134C41.1983 46.1134 41.5495 45.7293 41.6643 45.6037L43.9741 43.0774C44.2038 42.8262 44.5685 42.5233 44.994 42.5233C45.4127 42.5233 45.7571 42.8114 45.9665 43.0626C45.9733 43.07 45.9733 43.07 45.98 43.0774L49.7014 47.1476C50.397 47.9011 50.397 48.6767 49.7081 49.4597Z" fill="white"/>
<path d="M39.294 28.3255C41.0635 28.6506 42.6709 29.5666 43.9541 30.9701C45.2373 32.3736 46.068 34.1317 46.372 36.0671C46.4463 36.5547 46.8312 36.8945 47.2702 36.8945C47.3243 36.8945 47.3715 36.8871 47.4256 36.8797C47.9253 36.791 48.2563 36.2739 48.1752 35.7273C47.8105 33.3856 46.7975 31.2508 45.2508 29.5592C43.7042 27.8676 41.7523 26.7595 39.6114 26.3606C39.1116 26.272 38.6456 26.6339 38.5578 27.1732C38.47 27.7124 38.7942 28.2369 39.294 28.3255Z" fill="white"/>
<path d="M53.9628 35.4392C53.3617 31.5832 51.7002 28.0744 49.1473 25.2821C46.5944 22.4898 43.3863 20.6726 39.8608 20.0152C39.3678 19.9192 38.9018 20.2885 38.814 20.8278C38.7329 21.3744 39.0638 21.8841 39.5636 21.9801C42.7109 22.5637 45.5813 24.1962 47.8641 26.6857C50.1469 29.1825 51.6327 32.3219 52.1663 35.7643C52.2405 36.2518 52.6255 36.5916 53.0645 36.5916C53.1185 36.5916 53.1658 36.5842 53.2199 36.5768C53.7129 36.4956 54.0506 35.9785 53.9628 35.4392Z" fill="white"/>
<circle cx="37.5" cy="37.5" r="36.5" stroke="white" stroke-width="2"/>
</svg>
