<svg width="43" height="43" viewBox="0 0 43 43" fill="none" xmlns="http://www.w3.org/2000/svg">
<g clip-path="url(#clip0)">
<path d="M37.5935 5.40742C34.1065 1.92039 29.4703 0 24.539 0C19.6077 0 14.9715 1.92039 11.4846 5.40742C7.99763 8.89437 6.07716 13.5306 6.07716 18.4618C6.07716 22.9703 7.68328 27.2315 10.6234 30.594L0.37034 40.8471C-0.122144 41.3396 -0.122144 42.1381 0.37034 42.6306C0.616582 42.8768 0.939334 43 1.262 43C1.58467 43 1.90751 42.8769 2.15366 42.6306L12.4068 32.3775C15.7693 35.3175 20.0305 36.9237 24.539 36.9237C29.4704 36.9237 34.1064 35.0033 37.5935 31.5163C41.0804 28.0294 43.0008 23.3932 43.0008 18.4619C43.0008 13.5306 41.0805 8.89437 37.5935 5.40742ZM35.81 29.7329C29.5951 35.9477 19.483 35.9477 13.2681 29.7329C7.05322 23.5181 7.05322 13.4058 13.2681 7.19091C16.3758 4.08315 20.4568 2.52978 24.5391 2.52978C28.6204 2.52978 32.703 4.08391 35.8101 7.19091C42.0248 13.4057 42.0248 23.518 35.81 29.7329Z" fill="#1D1B1B"/>
</g>
<defs>
<clipPath id="clip0">
<rect width="43" height="43" fill="white"/>
</clipPath>
</defs>
</svg>
