<svg width="49" height="50" viewBox="0 0 49 50" fill="none" xmlns="http://www.w3.org/2000/svg">
<path d="M1.20315 31.1052C1.47187 31.2948 1.75537 31.4617 2.05082 31.6043C2.40443 31.7881 2.99568 32.0959 3.03732 32.3122C3.0893 32.5962 3.056 32.8896 2.94178 33.154C2.8201 33.4202 2.69189 33.649 2.58246 33.847C2.28275 34.3843 1.78297 35.2852 2.53754 35.9141C2.71393 36.0805 3.01854 36.3209 3.29702 36.538C3.09238 36.902 2.99964 37.3201 3.03079 37.7384C3.07369 38.0657 3.24708 38.3606 3.51016 38.5536C3.6939 38.6867 3.89071 38.8032 4.08181 38.9155C4.56199 39.1941 4.74982 39.3239 4.81678 39.5809C4.8607 39.9194 4.83002 40.2635 4.72695 40.5883C4.67877 40.8046 4.63222 41.0201 4.60201 41.2413C4.52106 42 4.61559 42.7675 4.87803 43.4824C5.24454 44.807 6.42051 45.73 7.77138 45.7533C7.99558 45.7525 8.21912 45.7285 8.43858 45.6818C10.7716 45.1186 13.0705 44.4178 15.3237 43.583C17.1627 44.6827 18.3256 48.0268 18.6286 49.2821C18.7194 49.6528 19.0464 49.9129 19.4216 49.9126L39.9192 49.8544C40.179 49.8539 40.423 49.7275 40.5765 49.514C40.73 49.3005 40.7746 49.0254 40.6967 48.773C40.4947 48.2094 40.2162 47.6774 39.8694 47.1924C39.6732 46.9055 39.4964 46.6054 39.3402 46.294C38.971 45.5311 38.6626 44.7391 38.4182 43.9257C37.9524 42.318 37.6291 40.671 37.4521 39.0045C37.1655 36.5157 37.5359 33.9942 38.5252 31.6999C39.1289 30.4276 39.8731 29.2294 40.7432 28.1288C41.2332 27.455 41.742 26.757 42.1985 26.0242C42.9834 24.7822 43.5524 23.4118 43.8807 21.973C43.9747 21.5289 43.7015 21.0902 43.267 20.9875C42.8325 20.8848 42.3976 21.1562 42.2899 21.597C42.0028 22.8527 41.5056 24.0487 40.82 25.1324C40.3961 25.8154 39.9061 26.4875 39.4317 27.138C38.4867 28.3391 37.6803 29.6468 37.0283 31.0353C35.9224 33.6011 35.5091 36.4212 35.8311 39.2041C36.0194 40.9716 36.3641 42.7181 36.8609 44.4224C37.1292 45.3172 37.4681 46.1885 37.8743 47.0277C38.0605 47.4027 38.272 47.764 38.5072 48.1091L38.562 48.1923L20.0389 48.2489C19.4961 46.2757 18.5119 44.4574 17.1636 42.9367L17.8985 42.6763C18.4473 42.4808 18.8613 42.3336 19.0753 42.2604C22.5722 41.1249 24.3214 39.5028 24.2732 37.4356C24.271 37.2148 24.1811 37.0043 24.024 36.8522C23.8669 36.7 23.656 36.6191 23.4394 36.6279C22.9887 36.6388 22.6319 37.0197 22.6424 37.4788C22.662 38.3298 21.9736 39.576 18.5788 40.6773C18.3567 40.7497 17.9255 40.9019 17.3612 41.1041C16.7544 41.3195 15.9851 41.594 15.1358 41.8877H15.1301C12.8335 42.7455 10.4902 43.4676 8.11192 44.0505C7.35128 44.1962 6.61188 43.7095 6.42964 42.9433C6.25401 42.4738 6.18505 41.9698 6.22793 41.4693C6.25162 41.3029 6.29 41.1282 6.32756 40.9585C6.50136 40.3778 6.52944 39.7621 6.40923 39.1675C6.17206 38.4057 5.62205 37.7863 4.90171 37.4697L4.72613 37.3674C4.81416 37.1852 4.91975 37.0125 5.04136 36.8516C5.17818 36.6746 5.23866 36.4486 5.20895 36.2253C5.17924 36.0021 5.0619 35.8006 4.88375 35.6671C4.68857 35.5207 4.23043 35.168 3.88745 34.8901C3.92664 34.8177 3.96911 34.7379 4.01076 34.6663C4.13897 34.4367 4.28597 34.1672 4.42806 33.8619C4.68687 33.2792 4.76273 32.6293 4.64529 32.0011C4.45011 30.9862 3.49546 30.4888 2.79887 30.1261C2.56418 30.0123 2.33911 29.8791 2.12595 29.7276C1.95095 29.6082 1.78695 29.4729 1.63597 29.3233C1.63597 29.1969 1.76908 28.8916 2.39055 28.1205C3.85186 26.2026 5.10457 24.1288 6.12667 21.9356C6.31854 21.5918 6.42664 21.2061 6.44189 20.8109C6.35637 19.9739 5.9195 19.2156 5.24388 18.7313C4.91315 18.4218 4.60037 18.1307 4.56526 17.8853C4.57274 17.6815 4.61761 17.4809 4.69755 17.2939C4.83066 16.9378 4.98501 16.5884 5.13854 16.2382C5.4829 15.5157 5.75644 14.7603 5.95518 13.9831C6.14231 13.0508 6.3878 12.1316 6.69015 11.2313C7.33383 9.42134 8.33055 7.76286 9.62026 6.35577C11.1817 4.67127 13.6398 3.48005 16.939 2.8129C19.4626 2.24852 22.0233 1.87263 24.6007 1.68823C25.4679 1.64271 26.3372 1.66161 27.2017 1.7448C27.4929 1.77243 27.7764 1.63974 27.9455 1.3967C28.1146 1.15365 28.1435 0.837186 28.0214 0.566504C27.8993 0.295822 27.6448 0.112049 27.3536 0.0844102C26.4099 -0.00366557 25.4613 -0.0228472 24.5149 0.0270121C21.8579 0.214808 19.218 0.600714 16.6164 1.18163C12.9342 1.9303 10.2581 3.24546 8.43204 5.21197C6.99012 6.78212 5.87557 8.63367 5.15569 10.6548C4.82474 11.6384 4.55606 12.6425 4.3513 13.6611C4.17676 14.3144 3.94216 14.9494 3.65062 15.5578C3.48729 15.9363 3.31906 16.3148 3.17207 16.7082C2.98621 17.148 2.90991 17.6278 2.94994 18.1049C3.11887 18.8474 3.54256 19.5041 4.14469 19.9566C4.54484 20.3301 4.80861 20.593 4.81188 20.8226C4.78216 20.9489 4.73544 21.0704 4.67305 21.1836C3.69533 23.2812 2.49711 25.2646 1.09944 27.0989C0.508192 27.8335 -0.112454 28.6894 0.0173912 29.5463C0.19129 30.2069 0.618566 30.7686 1.20315 31.1052Z" fill="black"/>
<path d="M9.75114 12.3867C10.2429 10.9979 11.0051 9.72471 11.992 8.64345C13.0806 7.46972 14.9629 6.60544 17.5876 6.07389C18.03 5.98454 18.3176 5.54675 18.2299 5.09607C18.1421 4.64538 17.7124 4.35247 17.2699 4.44182C14.3063 5.04241 12.1316 6.07057 10.8054 7.498C9.66585 8.74386 8.78579 10.2119 8.21831 11.8136C7.9434 12.6446 7.71948 13.4922 7.54785 14.3515L9.14274 14.7117C9.29927 13.9249 9.50244 13.1485 9.75114 12.3867Z" fill="black"/>
<path d="M26.8356 4.65978L26.3456 7.14865C25.8732 7.30665 25.4135 7.50131 24.9704 7.73094L22.8969 6.31681C22.2491 5.88464 21.3924 5.97531 20.8456 6.53392L19.4899 7.91394C18.9308 8.47315 18.8403 9.35809 19.2744 10.0227L20.6561 12.1247C20.4307 12.5761 20.2396 13.0444 20.0845 13.5255L17.6444 14.0246C16.8819 14.1815 16.3339 14.8644 16.3345 15.6567V17.6199C16.3339 18.4109 16.8802 19.0929 17.6411 19.2511L20.0845 19.7502C20.2396 20.2313 20.4307 20.6997 20.6561 21.151L19.2678 23.2631C18.8436 23.923 18.9326 24.7957 19.481 25.3527L20.8366 26.7335C21.3865 27.3005 22.2534 27.3921 22.9059 26.9523L24.9696 25.5448C25.4127 25.7744 25.8724 25.9691 26.3448 26.1271L26.8348 28.6126C26.9884 29.3896 27.6589 29.9483 28.437 29.9477H30.3642C31.1408 29.9483 31.8104 29.3918 31.9657 28.6168L32.4557 26.1279C32.928 25.9699 33.3877 25.7753 33.8309 25.5456L35.9043 26.9598C36.5521 27.3919 37.4089 27.3013 37.9557 26.7427L39.3105 25.3626C39.8697 24.8034 39.9601 23.9185 39.5261 23.2539L38.1443 21.1519C38.3698 20.7005 38.5609 20.2322 38.716 19.751L41.1561 19.2519C41.6408 19.1521 42.0546 18.8332 42.2806 18.3852L43.5112 19.2253C43.7487 19.3777 44.0236 19.4587 44.3042 19.4591C44.6957 19.4592 45.071 19.3002 45.347 19.0174L46.4332 17.911C46.9271 17.4053 47.0064 16.6166 46.6234 16.0194L45.57 14.4139C45.7228 14.1011 45.8548 13.7782 45.9652 13.4473L47.8133 13.0722C48.5047 12.9338 49.0025 12.3151 48.9998 11.5973V10.0335C49.0023 9.31838 48.508 8.70131 47.8198 8.56028L45.9636 8.18346C45.8541 7.85254 45.7226 7.52959 45.57 7.21686L46.6398 5.59228C47.0105 4.99727 46.9256 4.21981 46.4356 3.7223L45.3495 2.61595C44.8532 2.11252 44.0787 2.03168 43.4925 2.42213L41.9164 3.49521C41.6092 3.33955 41.2922 3.20505 40.9674 3.09259L40.5983 1.21014C40.4625 0.506132 39.8556 -0.000822311 39.1512 0.00147429H37.616C36.9139 -0.00104916 36.3082 0.502432 36.1697 1.20348L35.7998 3.09426C35.4748 3.20664 35.1578 3.34143 34.8508 3.4977L33.256 2.40799C32.6717 2.03104 31.9089 2.11745 31.4202 2.61595L30.6852 3.36461C30.5796 3.34217 30.4721 3.33019 30.3642 3.32884H28.437C27.6604 3.32828 26.9909 3.88476 26.8356 4.65978ZM39.3203 7.9206L38.9389 7.53213C40.3544 7.72514 41.4802 8.83692 41.7135 10.2721C41.9468 11.7072 41.2328 13.1293 39.954 13.7768L38.7143 13.5272C38.5592 13.0461 38.3681 12.5778 38.1427 12.1264L39.531 10.0143C39.9568 9.35464 39.8687 8.48095 39.3203 7.92309V7.9206ZM32.485 3.88118L34.3519 5.15889C34.6137 5.3377 34.9531 5.34709 35.224 5.18301C35.6915 4.90276 36.1943 4.68867 36.7185 4.54665C37.018 4.46425 37.2458 4.21608 37.3065 3.90613L37.745 1.66516H39.0222L39.4607 3.91113C39.5214 4.22107 39.7492 4.46925 40.0487 4.55164C40.5729 4.69367 41.0757 4.90775 41.5432 5.188C41.815 5.3506 42.1545 5.33926 42.4153 5.15889L44.2821 3.88284L45.1886 4.80619L43.9367 6.70861C43.7612 6.97527 43.7519 7.32104 43.913 7.59701C44.1882 8.07319 44.3983 8.58532 44.5378 9.11928C44.6186 9.42439 44.8623 9.65645 45.1666 9.71821L47.3715 10.1649V11.4659L45.1706 11.9126C44.8664 11.9744 44.6227 12.2064 44.5418 12.5115C44.4024 13.0455 44.1922 13.5576 43.9171 14.0338C43.756 14.3098 43.7652 14.6555 43.9408 14.9222L45.1935 16.8238L44.287 17.7471L42.4668 16.5069V15.6567C42.4669 15.1697 42.258 14.7069 41.8951 14.3898C43.3328 12.979 43.7839 10.8195 43.0346 8.93467C42.2852 7.04987 40.4861 5.81858 38.4898 5.82436C37.996 5.82752 37.5058 5.90948 37.037 6.06726C36.638 6.00804 36.2314 6.09914 35.8937 6.32346L33.8317 7.73094C33.3886 7.50131 32.9288 7.30665 32.4565 7.14865L31.9665 4.66311C31.952 4.59646 31.9332 4.53088 31.9101 4.4668L32.485 3.88118ZM27.849 7.96801L28.437 4.99252H30.3642L30.9514 7.97051C31.0125 8.2796 31.2398 8.52696 31.5386 8.60936C32.2133 8.79464 32.8614 9.06868 33.4666 9.42457C33.7363 9.58391 34.0716 9.57294 34.3306 9.39628L36.8018 7.71264L38.1705 9.09932L36.5127 11.619C36.3393 11.8829 36.3285 12.2243 36.4849 12.499C36.8343 13.1155 37.1033 13.7757 37.2852 14.463C37.3661 14.7673 37.609 14.9989 37.9124 15.0611L40.8335 15.6559V17.6199L37.9099 18.218C37.6065 18.2801 37.3637 18.5117 37.2828 18.816C37.1009 19.5033 36.8319 20.1636 36.4825 20.78C36.326 21.0547 36.3368 21.3962 36.5102 21.6601L38.1631 24.1773L36.8018 25.5714L34.3282 23.8828C34.0691 23.7061 33.7339 23.6952 33.4642 23.8545C32.859 24.2104 32.2108 24.4844 31.5361 24.6697C31.2374 24.7521 31.01 24.9995 30.949 25.3086L30.3642 28.2841H28.437L27.8498 25.3061C27.7888 24.997 27.5614 24.7496 27.2627 24.6672C26.5879 24.4819 25.9398 24.2079 25.3346 23.852C25.0649 23.6927 24.7297 23.7036 24.4706 23.8803L21.9995 25.5639L20.6308 24.1773L22.2886 21.6576C22.462 21.3937 22.4728 21.0522 22.3163 20.7775C21.9669 20.1611 21.6979 19.5008 21.516 18.8136C21.4351 18.5092 21.1923 18.2776 20.8888 18.2155L17.9677 17.6199V15.6567L20.8913 15.0586C21.1947 14.9964 21.4376 14.7649 21.5185 14.4605C21.7004 13.7732 21.9694 13.113 22.3188 12.4966C22.4752 12.2218 22.4644 11.8804 22.291 11.6165L20.6381 9.09932L21.9995 7.70515L24.473 9.39379C24.7321 9.57044 25.0674 9.58141 25.337 9.42207C25.9423 9.06619 26.5904 8.79215 27.2651 8.60687C27.5626 8.52339 27.7885 8.27623 27.849 7.96801Z" fill="black"/>
<path d="M29.401 22.461C32.5581 22.461 35.1174 19.854 35.1174 16.6382C35.1174 13.4224 32.5581 10.8154 29.401 10.8154C26.2439 10.8154 23.6846 13.4224 23.6846 16.6382C23.6882 19.8525 26.2454 22.4573 29.401 22.461ZM29.401 12.4791C31.656 12.4791 33.4841 14.3412 33.4841 16.6382C33.4841 18.9352 31.656 20.7973 29.401 20.7973C27.1459 20.7973 25.3178 18.9352 25.3178 16.6382C25.3205 14.3423 27.147 12.4818 29.401 12.4791Z" fill="black"/>
<path d="M29.4006 17.47C29.8516 17.47 30.2172 17.0974 30.2172 16.6378C30.2172 16.1782 29.8516 15.8057 29.4006 15.8057C28.9496 15.8057 28.584 16.1782 28.584 16.6378C28.584 17.0974 28.9496 17.47 29.4006 17.47Z" fill="black"/>
<path d="M7.35176 18.3025C7.80275 18.3025 8.16836 17.9299 8.16836 17.4703C8.16836 17.0107 7.80275 16.6382 7.35176 16.6382C6.90076 16.6382 6.53516 17.0107 6.53516 17.4703C6.53516 17.9299 6.90076 18.3025 7.35176 18.3025Z" fill="black"/>
</svg>
