<svg width="71" height="71" viewBox="0 0 71 71" fill="none" xmlns="http://www.w3.org/2000/svg">
<g clip-path="url(#clip0)">
<path d="M47.7334 38.3781L41.6898 35.692C41.2628 35.5023 40.9871 35.0778 40.9871 34.6108V32.9511C43.0173 31.3335 44.3222 28.8425 44.3222 26.0511V23.7149C44.991 23.3453 45.4338 22.6311 45.4338 21.8313V21.6046C45.4338 16.7405 41.4765 12.7832 36.6124 12.7832H34.3892C29.5252 12.7832 25.5679 16.7405 25.5679 21.6046V23.6618C25.5679 24.3648 25.8705 25.0017 26.3978 25.4093C26.4873 25.4784 26.5814 25.5391 26.6795 25.5917V26.0509C26.6795 28.8424 27.9842 31.3334 30.0143 32.9508V34.6106C30.0143 35.0777 29.7384 35.5021 29.3116 35.6918L23.268 38.3779C21.2887 39.2575 20.0098 41.2256 20.0098 43.3915V57.176C20.0098 57.7504 20.4754 58.2161 21.0498 58.2161C21.6242 58.2161 22.0898 57.7504 22.0898 57.176V43.3916C22.0898 43.2711 22.0984 43.152 22.1109 43.0338L24.8957 45.8187C25.3291 46.2521 25.5679 46.8283 25.5679 47.4414V57.1762C25.5679 57.7506 26.0335 58.2162 26.6079 58.2162C27.1823 58.2162 27.648 57.7506 27.648 57.1762V47.4414C27.648 46.2728 27.193 45.1742 26.3666 44.3479L23.0467 41.0278C23.3458 40.7175 23.7047 40.4602 24.1129 40.2787L30.0546 37.638L34.4609 42.0443V57.176C34.4609 57.7504 34.9266 58.2161 35.501 58.2161C36.0753 58.2161 36.541 57.7504 36.541 57.176V42.0444L40.9473 37.6381L46.8889 40.2787C47.2971 40.4602 47.656 40.7175 47.9551 41.028L44.6352 44.3479C43.8088 45.1742 43.3538 46.2728 43.3538 47.4414V57.1762C43.3538 57.7506 43.8195 58.2162 44.3939 58.2162C44.9683 58.2162 45.4339 57.7506 45.4339 57.1762V47.4414C45.4339 46.8285 45.6726 46.2521 46.1061 45.8187L48.8907 43.034C48.9032 43.1521 48.9118 43.271 48.9118 43.3915V57.176C48.9118 57.7504 49.3775 58.2161 49.9519 58.2161C50.5262 58.2161 50.9919 57.7504 50.9919 57.176V43.3916C50.9915 41.2257 49.7126 39.2577 47.7334 38.3781ZM35.5006 40.1428L31.6342 36.2763C31.9282 35.7817 32.0942 35.2094 32.0942 34.6108V34.1875C33.143 34.6282 34.2938 34.8724 35.5007 34.8724C36.7076 34.8724 37.8583 34.6284 38.9069 34.1877V34.6108C38.9069 35.2095 39.0729 35.7817 39.367 36.2765L35.5006 40.1428ZM35.5007 32.7922C31.7836 32.7923 28.7594 29.7682 28.7594 26.0511V25.5833C29.4084 25.3261 30.0419 24.9167 30.6483 24.3572C31.0703 23.9677 31.0967 23.3097 30.7071 22.8875C30.3175 22.4656 29.6597 22.4391 29.2374 22.8286C28.7173 23.3088 28.1975 23.619 27.693 23.7508C27.6808 23.754 27.6718 23.7554 27.6654 23.7559C27.6579 23.7414 27.6478 23.7108 27.6478 23.6619V21.6047C27.6478 17.8876 30.672 14.8634 34.3891 14.8634H36.6123C40.3295 14.8634 43.3536 17.8876 43.3536 21.6047V21.8314C43.3536 21.8651 43.3333 21.8944 43.3067 21.8997C37.0788 23.1297 33.9551 20.8115 32.9011 19.7576C32.495 19.3514 31.8364 19.3514 31.4304 19.7576C31.0242 20.1638 31.0242 20.8223 31.4304 21.2283C34.6601 24.458 39.3728 24.5163 42.242 24.1715V26.0509C42.242 29.768 39.2178 32.7922 35.5007 32.7922Z" fill="#1D1B1B"/>
<path d="M18.7543 32.7211V30.4974C18.7543 27.7842 17.3443 25.3957 15.2197 24.0212C15.3509 23.6003 15.4194 23.1595 15.4194 22.7161C15.4194 20.3038 13.4569 18.3413 11.0445 18.3413C8.6322 18.3413 6.66971 20.3039 6.66971 22.7161C6.66971 23.165 6.73766 23.6016 6.86912 24.0215C4.74467 25.3958 3.33479 27.7843 3.33479 30.4974V32.7206C3.33479 35.3481 4.65675 37.6714 6.66958 39.0639V41.351C6.66958 41.8021 6.41899 42.2076 6.0156 42.4094L2.4183 44.208C0.926607 44.954 0 46.4533 0 48.1212V57.1763C0 57.7507 0.465661 58.2164 1.04004 58.2164C1.61442 58.2164 2.08008 57.7507 2.08008 57.1763V48.571L3.77438 50.2653C4.20773 50.6988 4.44652 51.275 4.44652 51.888V57.1763C4.44652 57.7507 4.91218 58.2164 5.48656 58.2164C6.06094 58.2164 6.5266 57.7507 6.5266 57.1763V51.888C6.5266 50.7195 6.07148 49.6209 5.24527 48.7946L2.88715 46.4364C2.87578 46.4251 2.86358 46.4152 2.85193 46.4045C2.99989 46.2739 3.16589 46.1602 3.34866 46.0687L6.94595 44.2701C7.13024 44.1779 7.30178 44.069 7.46167 43.9481L10.0045 46.4911V57.1764C10.0045 57.7508 10.4702 58.2165 11.0445 58.2165C11.6189 58.2165 12.0846 57.7508 12.0846 57.1764V46.4909L14.6276 43.948C14.7876 44.069 14.959 44.1779 15.1433 44.27L16.1352 44.766C16.2845 44.8407 16.4432 44.8761 16.5996 44.8761C16.9811 44.8761 17.3484 44.6653 17.5307 44.301C17.7876 43.7872 17.5793 43.1625 17.0655 42.9057L16.0736 42.4097C15.6701 42.2079 15.4195 41.8024 15.4195 41.3515V39.0643C17.4323 37.6718 18.7543 35.3483 18.7543 32.7211ZM11.0445 20.4214C12.3099 20.4214 13.3393 21.4509 13.3393 22.7161C13.3393 22.8555 13.3268 22.9921 13.303 23.1259C12.5882 22.9065 11.8301 22.7877 11.0445 22.7877C10.2601 22.7877 9.50292 22.9061 8.78932 23.1249C8.76533 22.9911 8.7498 22.8552 8.7498 22.7161C8.7498 21.4508 9.77916 20.4214 11.0445 20.4214ZM11.0445 24.8679C14.1487 24.8679 16.6742 27.3934 16.6742 30.4976V30.8745C12.3442 32.2002 9.76363 28.9063 9.65338 28.762C9.47242 28.5208 9.19577 28.3699 8.89512 28.3486C8.59448 28.3275 8.29911 28.4375 8.08597 28.6506C7.09322 29.6434 6.12085 30.1222 5.41861 30.3534C5.49558 27.3156 7.98876 24.8679 11.0445 24.8679ZM11.0445 44.5892L8.64122 42.1858C8.71138 41.9177 8.7498 41.6381 8.7498 41.3512V40.0816C9.47491 40.3082 10.2458 40.4304 11.0445 40.4304C11.8433 40.4304 12.6142 40.3082 13.3393 40.0816V41.3512C13.3393 41.6381 13.3777 41.9178 13.4479 42.1858L11.0445 44.5892ZM11.0445 38.3503C7.94037 38.3503 5.41487 35.8248 5.41487 32.7206V32.5051C6.24427 32.3146 7.47401 31.8718 8.75687 30.8401C9.21074 31.2683 9.85945 31.7936 10.6855 32.2442C11.6626 32.7771 13.012 33.2701 14.6603 33.2701C15.2867 33.2701 15.9569 33.1973 16.6653 33.03C16.5041 35.9909 14.0449 38.3503 11.0445 38.3503Z" fill="#1D1B1B"/>
<path d="M68.5816 41.9852L62.7612 39.0749C62.3578 38.8731 62.1072 38.4677 62.1072 38.0167V36.5428C63.4696 35.3331 64.3304 33.5703 64.3304 31.6095V30.4256C64.3544 30.4256 64.3779 30.4263 64.4019 30.4263C64.9763 30.4263 65.442 29.9607 65.442 29.3863V27.1631C65.442 23.5249 62.482 20.5649 58.8438 20.5649H56.6206C52.9824 20.5649 50.0225 23.5249 50.0225 27.1631V29.3863C50.0225 29.9607 50.4881 30.4263 51.0625 30.4263C51.0711 30.4263 51.0961 30.4261 51.1341 30.4245V31.6095C51.1341 33.5704 51.9949 35.3333 53.3574 36.5429V38.0168C53.3574 38.4679 53.1068 38.8734 52.7033 39.075C52.1895 39.3319 51.9812 39.9566 52.2382 40.4704C52.4204 40.8348 52.7877 41.0456 53.1692 41.0456C53.3255 41.0456 53.4841 41.0102 53.6335 40.9356C53.8178 40.8434 53.9893 40.7345 54.1492 40.6136L56.6922 43.1566V57.1768C56.6922 57.7511 57.1578 58.2168 57.7322 58.2168C58.3066 58.2168 58.7723 57.7511 58.7723 57.1768V43.1563L61.3151 40.6133C61.4751 40.7344 61.6465 40.8433 61.8308 40.9353L67.463 43.7515L65.7547 45.4598C64.9285 46.2861 64.4733 47.3847 64.4733 48.5533V57.1765C64.4733 57.7509 64.939 58.2165 65.5134 58.2165C66.0878 58.2165 66.5534 57.7509 66.5534 57.1765V48.5533C66.5534 47.9404 66.7921 47.364 67.2256 46.9305L68.8437 45.3124C68.8928 45.5006 68.9197 45.6968 68.9197 45.8981V57.1765C68.9197 57.7509 69.3854 58.2165 69.9598 58.2165C70.5341 58.2165 70.9998 57.7509 70.9998 57.1765V45.8981C70.9999 44.2305 70.0733 42.7311 68.5816 41.9852ZM52.1024 28.1323V27.163H52.1025C52.1025 24.6717 54.1294 22.6449 56.6206 22.6449H58.8438C61.3351 22.6449 63.3619 24.6717 63.3619 27.163V28.3182C58.8408 28.0743 56.1124 26.315 56.0859 26.2976C55.9099 26.1803 55.7091 26.1229 55.5093 26.1229C55.2408 26.1229 54.9746 26.2266 54.7735 26.4276C53.7784 27.4227 52.8034 27.9017 52.1024 28.1323ZM57.7322 41.2547L55.3289 38.8514C55.3991 38.5832 55.4375 38.3036 55.4375 38.0167V37.7952C56.1525 38.0613 56.9256 38.2075 57.7322 38.2075C58.5389 38.2075 59.312 38.0613 60.027 37.7952V38.0167C60.027 38.3036 60.0652 38.5832 60.1355 38.8514L57.7322 41.2547ZM57.7322 36.1276C55.241 36.1276 53.2141 34.1009 53.2141 31.6095V29.9328C53.9426 29.6417 54.7913 29.179 55.6549 28.4432C56.7471 29.0115 59.0321 29.9937 62.2503 30.3182V31.6095C62.2503 34.1007 60.2235 36.1276 57.7322 36.1276Z" fill="#1D1B1B"/>
</g>
<defs>
<clipPath id="clip0">
<rect width="71" height="71" fill="white"/>
</clipPath>
</defs>
</svg>
